<svg width="33" height="38" viewBox="0 0 33 38" fill="none" xmlns="http://www.w3.org/2000/svg">
<path fill-rule="evenodd" clip-rule="evenodd" d="M9.64658 15.3253C16.8959 12.8249 18.1298 6.31124 17.2044 0.322421C17.2044 0.106329 17.3894 -0.0480219 17.5745 0.0137185C24.5153 3.40944 32.3199 10.8183 32.3199 21.9316C32.3199 30.4517 25.7184 37.9841 16.1247 37.9841C12.7013 38.1398 9.32366 37.1503 6.52473 35.1717C3.7258 33.193 1.66504 30.338 0.667687 27.0571C-0.329662 23.7762 -0.206791 20.2564 1.01691 17.0532C2.24061 13.85 4.49544 11.1457 7.42552 9.36739C7.61061 9.24391 7.85739 9.36739 7.85739 9.58348C7.94994 10.7257 8.25842 13.5966 9.52319 15.3253H9.64658Z" fill="url(#paint0_linear_1134_1405)"/>
<defs>
<linearGradient id="paint0_linear_1134_1405" x1="6" y1="34.5" x2="29.5" y2="12.5" gradientUnits="userSpaceOnUse">
<stop stop-color="#FE3675"/>
<stop offset="1" stop-color="#FF7854"/>
</linearGradient>
</defs>
</svg>
